<svg width="1440" height="1024" viewBox="0 0 1440 1024" fill="none" xmlns="http://www.w3.org/2000/svg">
<rect width="1440" height="1024" fill="#E5E5E5"/>
<g clip-path="url(#clip0)">
<rect width="1440" height="1024" fill="white"/>
<path d="M150.778 1119.29C762.336 1096.01 705.956 692.758 1138.9 853.906C1571.84 1015.05 1876.7 72.2761 1323.9 258.938C771.102 445.601 726.563 590.004 180.152 510.731C-366.259 431.458 -460.779 1142.57 150.778 1119.29Z" fill="#F7B95D"/>
<path d="M1425.85 408C699.235 408 787.889 647.607 241.539 647.607C-304.812 647.607 -669.105 1462.42 -4.82162 1288.19C659.462 1113.97 718.825 963.841 1363.52 1069.11C2008.21 1174.39 2152.47 408 1425.85 408Z" fill="#6094B9"/>
</g>
<defs>
<clipPath id="clip0">
<rect width="1440" height="1024" fill="white"/>
</clipPath>
</defs>
</svg>
